<?xml version="1.0" encoding="UTF-8" standalone="no"?><!DOCTYPE svg PUBLIC "-//W3C//DTD SVG 1.1//EN" "http://www.w3.org/Graphics/SVG/1.1/DTD/svg11.dtd"><svg width="16px" height="16px" version="1.1" xmlns="http://www.w3.org/2000/svg" xmlns:xlink="http://www.w3.org/1999/xlink" xml:space="preserve" xmlns:serif="http://www.serif.com/" style="fill-rule:evenodd;clip-rule:evenodd;stroke-linejoin:round;stroke-miterlimit:1.5;"><g transform="matrix(0.666667,0,0,0.666667,0,0)"><g id="turbo_16"><g transform="matrix(0.947368,0,0,0.868421,0.631579,3.07895)"><path d="M2.5,6.5L11.5,2.5L21.5,6.5L21.5,17.5L11.5,21.5L2.5,17.5L2.5,6.5Z"/></g><g transform="matrix(0.868421,0,0,0.868421,1.57895,1.57895)"><path d="M2.5,6.5L11.5,2.5L21.5,6.5L21.5,17.5L11.5,21.5L2.5,17.5L2.5,6.5Z" style="fill:#d6d7d7;"/></g><g transform="matrix(0.916667,0,0,0.868421,0.565789,-6.49644)"><path d="M3.474,15.799L12,19.799L21.474,15.799" style="fill:none;stroke:#808080;stroke-width:1.68px;"/></g><g transform="matrix(1.5,0,0,1.5,-45,-45)"><path d="M32.5,41.184L32.5,34.816L38,32.616L43.5,34.816L43.5,41.184" style="fill:none;stroke:#808080;stroke-width:1px;stroke-linejoin:miter;stroke-miterlimit:10;"/></g><g transform="matrix(0.868421,0,0,0.868421,1.57895,1.57895)"><path d="M11.5,10.5L11.5,21.5" style="fill:none;stroke:#808080;stroke-width:1.73px;"/></g><g transform="matrix(-0.0185171,0,0,0.0170824,24.6285,12.4767)"><path d="M307,16C307,16 128.483,71.227 149,233C149,233 126,215 123.977,165.804C16,300 126,496 256,496C377,496 505,379 400.266,181.577C405,260 371.009,288.429 371.009,288.429C371.009,199 234,114 307,16Z" style="fill:#fc4040;"/></g><g transform="matrix(-0.00999153,0,0,0.0092174,22.4154,16.3777)"><path d="M243.678,-11.799C243.678,-11.799 97.268,60.479 163.986,281.019C163.986,281.019 115.971,244.965 113.948,195.768C5.971,329.965 126,496 256,496C377,496 505,379 400.266,181.577C425.299,316.232 365.994,373.683 365.994,373.683C397.5,199.475 170.678,86.201 243.678,-11.799Z" style="fill:#ffd84a;"/></g></g></g></svg>